<svg id="Layer_1" data-name="Layer 1" xmlns="http://www.w3.org/2000/svg" viewBox="0 0 96.29 96.29"><defs><style>.cls-1{fill:#fff;}</style></defs><title>Untitled-2</title><g id="Insta"><path id="Icon_metro-instagram" data-name="Icon metro-instagram" class="cls-1" d="M80.3,0H16A16,16,0,0,0,0,16V80.3a16,16,0,0,0,16,16H80.3a16,16,0,0,0,16-16V16A16,16,0,0,0,80.3,0ZM30.82,42.12H65.46a18.34,18.34,0,1,1-34.64,0Zm53.43,0v36.1a6,6,0,0,1-6,6H18.05a6,6,0,0,1-6-6V42.12h9.41a27.36,27.36,0,1,0,53.39,0Zm0-21.07a3,3,0,0,1-3,3h-6a3,3,0,0,1-3-3V15a3,3,0,0,1,3-3h6a3,3,0,0,1,3,3Z"/></g></svg>