<svg id="Layer_1" data-name="Layer 1" xmlns="http://www.w3.org/2000/svg" viewBox="0 0 93.89 93.89"><defs><style>.cls-1{fill:#fff;}</style></defs><title>Untitled-2</title><g id="youtube"><path id="Icon_metro-youtube" data-name="Icon metro-youtube" class="cls-1" d="M26.88,0,20.54,12.58,14.2,0H6.1L17.54,19.93l.07,0V35.21h5.86V19.89l.07,0L35,0ZM44,11.74A3,3,0,0,1,47,14.67V26.41a2.94,2.94,0,0,1-5.87,0V14.67A3,3,0,0,1,44,11.74Zm0-5.87a8.83,8.83,0,0,0-8.8,8.8V26.41a8.81,8.81,0,0,0,17.61,0V14.67A8.83,8.83,0,0,0,44,5.87Zm26.41,0V29c-2.56,2.14-5.87,3.43-5.87-4.18V5.87H58.68V26h0c.09,4.85,1.12,13.58,11.73,6.48v2.75h5.87V5.87Zm8.8,58.68a2.94,2.94,0,0,0-2.93,2.94v2.93h5.87V67.49a2.94,2.94,0,0,0-2.94-2.94Zm-26.4,2.94v15.4c2,2,5.86,2.2,5.86-.74V68.4C58.68,65.47,55.75,64.55,52.82,67.49Zm40.6-14.17a12.2,12.2,0,0,0-12-11.76c-6.4-.32-21-.48-33.9-.48s-28.55.16-34.94.48a12.4,12.4,0,0,0-8.35,3.49A12.47,12.47,0,0,0,.58,53.32C.19,60.21,0,62.71,0,66.15s.19,8.61.58,15.5a12.2,12.2,0,0,0,12,11.77c6.4.32,22.08.47,34.94.47s27.51-.15,33.91-.47a12.2,12.2,0,0,0,12-11.77q.48-8.61.48-15.5c0-4.59-.16-7.09-.48-12.83ZM17.61,88H11.74V58.68H5.87V52.82h17.6v5.86H17.6Zm23.47,0H35.21V85.28c-11.16,6.26-11.64.2-11.73-4.65h0V64.55h5.87V80.72c0,3.55,3.31,3.2,5.87,1.07V64.55h5.87Zm23.47-6c0,6.14-6.28,7.93-11.73,3.16V88H47V52.82h5.87v9.53c5.86-5.87,11.73-3.67,11.73,2.2ZM88,70.42v2.93H76.29v5.87a2.94,2.94,0,1,0,5.87,0V76.29H88v2.93a8.81,8.81,0,1,1-17.61,0V67.49a8.81,8.81,0,1,1,17.61,0Z"/></g></svg>