<?xml version="1.0" encoding="utf-8"?>
<!-- Generator: Adobe Illustrator 22.1.0, SVG Export Plug-In . SVG Version: 6.00 Build 0)  -->
<svg version="1.1" id="Layer_1" xmlns="http://www.w3.org/2000/svg" xmlns:xlink="http://www.w3.org/1999/xlink" x="0px" y="0px"
	 viewBox="0 0 41 25" style="enable-background:new 0 0 41 25;" xml:space="preserve">
<g>
	<g>
		<g>
			<path d="M16.9,11.6c0.9-0.4,1.5-0.9,1.9-1.4C19.6,9.2,20,8,20,6.5c0-1.5-0.4-2.8-1.2-3.8C17.5,0.9,15.3,0,12.3,0H0v25h11.4
				c1.3,0,2.5-0.1,3.6-0.3c1.1-0.2,2.1-0.6,2.9-1.3c0.7-0.5,1.3-1.2,1.8-2c0.8-1.2,1.1-2.5,1.1-4c0-1.4-0.3-2.7-1-3.7
				C19.1,12.8,18.2,12.1,16.9,11.6z M5.1,4.3h5.5c1.2,0,2.2,0.1,3,0.4c0.9,0.4,1.4,1.1,1.4,2.3c0,1-0.3,1.8-1,2.2
				c-0.7,0.4-1.6,0.6-2.7,0.6H5.1V4.3z M13.8,20.2c-0.6,0.3-1.5,0.4-2.6,0.4H5.1V14h6.2c1.1,0,1.9,0.2,2.5,0.4
				c1.1,0.5,1.6,1.4,1.6,2.7C15.4,18.6,14.9,19.7,13.8,20.2z"/>
			<rect x="26.2" y="0.5" width="10.9" height="3.1"/>
			<path d="M40.9,12.8c-0.2-1.4-0.7-2.7-1.5-3.8c-0.8-1.2-1.9-2.2-3.2-2.7c-1.3-0.6-2.8-0.9-4.4-0.9c-2.7,0-5,0.9-6.7,2.6
				c-1.7,1.7-2.6,4.2-2.6,7.4c0,3.4,1,5.9,2.9,7.4c1.9,1.5,4.1,2.3,6.6,2.3c3,0,5.4-0.9,7.1-2.7c1.1-1.1,1.7-2.2,1.8-3.3h-5
				c-0.3,0.5-0.6,1-1,1.3c-0.7,0.6-1.6,0.8-2.7,0.8c-1.1,0-2-0.2-2.7-0.7c-1.2-0.7-1.9-2-2-3.9H41C41,14.9,41,13.6,40.9,12.8z
				 M27.5,13.3c0.2-1.2,0.6-2.2,1.3-2.9c0.7-0.7,1.7-1.1,2.9-1.1c1.2,0,2.1,0.3,2.9,1c0.8,0.7,1.2,1.6,1.3,2.9H27.5z"/>
		</g>
	</g>
</g>
</svg>
