<?xml version="1.0" encoding="utf-8"?>
<!-- Generator: Adobe Illustrator 22.1.0, SVG Export Plug-In . SVG Version: 6.00 Build 0)  -->
<svg version="1.1" id="Layer_1" xmlns="http://www.w3.org/2000/svg" xmlns:xlink="http://www.w3.org/1999/xlink" x="0px" y="0px"
	 viewBox="0 0 34.3 25" style="enable-background:new 0 0 34.3 25;" xml:space="preserve">
<g>
	<path d="M7.3,0.1C5.4,0.1,4.1,1.3,4.1,3c0,1.6,1.2,2.9,3.1,2.9h0c1.9,0,3.2-1.3,3.2-2.9C10.4,1.3,9.2,0.1,7.3,0.1z"/>
	<path d="M4.5,8.2H10V25H4.5V8.2z"/>
	<path d="M23.7,7.8c-3,0-5,2.8-5,2.8V8.2h-5.6V25h5.6v-9.4c0-0.5,0-1,0.2-1.4c0.4-1,1.3-2,2.9-2c2,0,2.8,1.5,2.8,3.8v9h5.6v-9.6
		C30.1,10.2,27.4,7.8,23.7,7.8z"/>
</g>
</svg>
