<?xml version="1.0" encoding="utf-8"?>
<!-- Generator: Adobe Illustrator 22.1.0, SVG Export Plug-In . SVG Version: 6.00 Build 0)  -->
<svg version="1.1" id="Layer_1" xmlns="http://www.w3.org/2000/svg" xmlns:xlink="http://www.w3.org/1999/xlink" x="0px" y="0px"
	 viewBox="0 0 35.5 25" style="enable-background:new 0 0 35.5 25;" xml:space="preserve">
<path d="M34.7,4c-0.4-1.5-1.6-2.7-3.1-3.1c-2.8-0.8-13.9-0.8-13.9-0.8S6.6,0.1,3.8,0.8C2.4,1.2,1.1,2.5,0.7,4C0,6.7,0,12.5,0,12.5
	s0,5.8,0.7,8.5c0.4,1.5,1.6,2.7,3.1,3.1c2.8,0.8,13.9,0.8,13.9,0.8s11.1,0,13.9-0.7c1.5-0.4,2.7-1.6,3.1-3.1
	c0.7-2.8,0.7-8.5,0.7-8.5S35.5,6.7,34.7,4z M14.2,17.8V7.2l9.2,5.3L14.2,17.8z"/>
</svg>
