<?xml version="1.0" encoding="utf-8"?>
<!-- Generator: Adobe Illustrator 22.0.0, SVG Export Plug-In . SVG Version: 6.00 Build 0)  -->
<svg version="1.1" id="Layer_1" xmlns="http://www.w3.org/2000/svg" xmlns:xlink="http://www.w3.org/1999/xlink" x="0px" y="0px"
	 viewBox="0 0 308.7 44.6" style="enable-background:new 0 0 308.7 44.6;" xml:space="preserve">
<style type="text/css">
	.st0{fill:#D22027;}
	.st1{fill:#F4B51A;}
	.st2{fill:#1E8ECB;}
	.st3{fill:#E00C7E;}
	.st4{fill:#FFFFFF;}
</style>
<g>
	<path d="M42.6,8c-3.8,0-7.2,1.5-9.9,4.4c-2.5,2.7-3.8,6-3.8,9.9c0,3.6,1.4,7.4,4,10c2.6,2.8,5.9,4.2,9.8,4.2
		c5.8,0,10.4-3.2,12.8-9.3h-5.4c-1.5,2.8-4.3,4.4-7.4,4.4c-4.4,0-7.9-3-8.7-7.6h22.4v-0.8c0-3.7-0.7-6.6-2.3-9.1
		C51.5,10.2,47.3,8,42.6,8 M34.2,19.7c1.2-4.3,4.5-7,8.6-7c4.1,0,7.2,2.6,8.4,7H34.2z M71.6,8.3c-3.1,0-5.4,1.1-7.4,3.5V8.8h-4.6v27
		h4.8V23.5c0-7,1.7-10.5,6.8-10.5c4.4,0,6.4,2.8,6.4,8.5v14.3h4.8V20.4C82.4,12.5,78.5,8.3,71.6,8.3 M13.5,12.8c3.7,0,6.3,1.6,8,4.9
		h5.2C24.6,11.4,19.9,8,13.9,8C10,8,6.5,9.5,3.8,12.5c-2.5,2.7-3.8,6-3.8,9.8c0,3.6,1.4,7.3,4,10c2.6,2.8,5.8,4.2,9.7,4.2
		c6.3,0,10.7-3.4,13-9.9h-5.2c-1.6,3.3-4.4,5.1-7.7,5.1c-4.9,0-8.8-4-8.8-9.5C5,16.8,8.8,12.8,13.5,12.8 M208.3,35.8h4.7v-27h-4.7
		V35.8z M208.3,5.6h4.7V0h-4.7V5.6z M230.8,8.3c-3.1,0-5.4,1.1-7.4,3.5V8.8h-4.6v27h4.8V23.5c0-7,1.7-10.5,6.8-10.5
		c4.4,0,6.4,2.8,6.4,8.5v14.3h4.8V20.4C241.6,12.5,237.7,8.3,230.8,8.3 M128.5,8c-3.9,0-7.2,1.5-9.9,4.4c-2.5,2.7-3.8,6-3.8,9.9
		c0,3.6,1.4,7.4,4,10c2.6,2.8,5.9,4.2,9.8,4.2c5.8,0,10.4-3.2,12.8-9.3H136c-1.5,2.8-4.2,4.4-7.4,4.4c-4.4,0-7.9-3-8.7-7.6h22.4
		v-0.8c0-3.7-0.7-6.6-2.3-9.1C137.3,10.2,133.2,8,128.5,8 M120,19.7c1.2-4.3,4.5-7,8.6-7c4.1,0,7.2,2.6,8.4,7H120z M190.3,7.9
		c-3.6,0-7.1,1.6-9.8,4.5c-2.5,2.7-3.8,6-3.8,9.9c0,3.6,1.4,7.3,3.9,10c2.6,2.8,5.9,4.2,9.8,4.2c3.9,0,7.3-1.6,10-4.6
		c2.3-2.6,3.7-6.3,3.7-10c0-3.6-1.4-7.2-4.1-9.9C197.5,9.3,194.2,7.9,190.3,7.9 M190.5,31.7c-5,0-8.8-4-8.8-9.5c0-5.6,4-9.5,8.8-9.5
		c4.9,0,8.8,3.9,8.8,9.5C199.2,27.7,195.4,31.7,190.5,31.7 M160,8.2c-3.4,0-6.4,1.3-8.9,3.9V8.8h-4.9v35.8h4.8v-12
		c2.6,2.7,5.6,4,9.3,4c4,0,7.1-1.3,9.8-4.2c2.5-2.6,3.9-6.1,3.9-9.9C174,14.3,168.1,8.2,160,8.2 M159.9,31.8c-4.8,0-9-4.2-9-9.7
		c0-5,4.3-9.3,8.9-9.3c5,0,9.1,4,9.1,9.7C169,27.7,164.8,31.8,159.9,31.8 M106.5,11.9V8.8h-4.5v27h4.8V20.7c0-4.7,1.5-7,6-7.3V8.3
		C110.1,8.4,108.1,9.5,106.5,11.9 M93.8,13.1l3.8,0.1V8.8h-3.8V0H89v8.8h-3.8v4.4H89l0,15c0.4,4,3,7.2,6.8,8.5l1.6-4.6
		c-2.1-0.7-3.7-2.3-3.7-4.9L93.8,13.1z M252.5,13.1l3.8,0.1V8.8h-3.8V0h-4.8v8.8H244v4.4h3.8l0,15c0.4,4,3,7.2,6.8,8.5l1.6-4.6
		c-2.1-0.7-3.7-2.3-3.7-4.9L252.5,13.1z"/>
	<g>
		<path class="st0" d="M286.4,0c-12.3,0-22.3,10-22.2,22.3c0,12.3,10,22.3,22.3,22.3c12.3,0,22.3-10,22.2-22.3
			C308.7,9.9,298.7,0,286.4,0"/>
		<path class="st1" d="M286.4,4.3c-9.9,0-17.9,8.1-17.9,18c0,9.9,8.1,17.9,18,17.9c9.9,0,17.9-8.1,17.9-18
			C304.3,12.3,296.3,4.3,286.4,4.3"/>
		<path class="st2" d="M286.4,8.9c-7.4,0-13.3,6-13.3,13.4c0,7.4,6,13.3,13.4,13.3c7.4,0,13.3-6,13.3-13.4
			C299.7,14.9,293.8,8.9,286.4,8.9"/>
		<path class="st3" d="M286.4,13.3c-4.9,0-9,4-8.9,9c0,4.9,4,8.9,9,8.9c5,0,9-4,8.9-9C295.3,17.3,291.3,13.3,286.4,13.3"/>
		<path class="st4" d="M286.4,26.7c-2.5,0-4.5-2-4.5-4.5c0-2.5,2-4.5,4.5-4.5c2.5,0,4.5,2,4.5,4.5C290.9,24.7,288.9,26.7,286.4,26.7
			"/>
	</g>
</g>
</svg>
